<svg width="46" height="46" viewBox="0 0 46 46" fill="none" xmlns="http://www.w3.org/2000/svg">
<path d="M5.11111 46C3.70556 46 2.50231 45.4995 1.50139 44.4986C0.500463 43.4977 0 42.2944 0 40.8889V5.11111C0 3.70556 0.500463 2.50231 1.50139 1.50139C2.50231 0.500463 3.70556 0 5.11111 0H40.8889C42.2944 0 43.4977 0.500463 44.4986 1.50139C45.4995 2.50231 46 3.70556 46 5.11111V40.8889C46 42.2944 45.4995 43.4977 44.4986 44.4986C43.4977 45.4995 42.2944 46 40.8889 46H5.11111ZM5.11111 40.8889H40.8889V5.11111H5.11111V40.8889ZM7.66667 35.7778H38.3333L28.75 23L21.0833 33.2222L15.3333 25.5556L7.66667 35.7778ZM14.0556 17.8889C15.1204 17.8889 16.0255 17.5162 16.7708 16.7708C17.5162 16.0255 17.8889 15.1204 17.8889 14.0556C17.8889 12.9907 17.5162 12.0856 16.7708 11.3403C16.0255 10.5949 15.1204 10.2222 14.0556 10.2222C12.9907 10.2222 12.0856 10.5949 11.3403 11.3403C10.5949 12.0856 10.2222 12.9907 10.2222 14.0556C10.2222 15.1204 10.5949 16.0255 11.3403 16.7708C12.0856 17.5162 12.9907 17.8889 14.0556 17.8889Z" fill="#60C4FC"/>
</svg>
